<mxfile modified="2021-11-10T21:24:14.198Z" host="app.diagrams.net" agent="5.0 (Macintosh; Intel Mac OS X 10_15_7) AppleWebKit/537.36 (KHTML, like Gecko) Chrome/95.0.4638.69 Safari/537.36" etag="kLZPhdGZm74jLAHPVGyD" version="15.7.0" type="github">
  <diagram id="Ht1M8jgEwFfnCIfOTk4-" name="Page-1">
    <mxGraphModel dx="1782" dy="890" grid="1" gridSize="10" guides="1" tooltips="1" connect="1" arrows="1" fold="1" page="1" pageScale="1" pageWidth="1169" pageHeight="827" math="0" shadow="0">
      <root>
        <mxCell id="0" />
        <mxCell id="1" parent="0" />
        <mxCell id="UEzPUAAOIrF-is8g5C7q-74" value="AWS Cloud" style="points=[[0,0],[0.25,0],[0.5,0],[0.75,0],[1,0],[1,0.25],[1,0.5],[1,0.75],[1,1],[0.75,1],[0.5,1],[0.25,1],[0,1],[0,0.75],[0,0.5],[0,0.25]];outlineConnect=0;gradientColor=none;html=1;whiteSpace=wrap;fontSize=12;fontStyle=0;shape=mxgraph.aws4.group;grIcon=mxgraph.aws4.group_aws_cloud_alt;strokeColor=#232F3E;fillColor=none;verticalAlign=top;align=left;spacingLeft=30;fontColor=#232F3E;dashed=0;labelBackgroundColor=#ffffff;" parent="1" vertex="1">
          <mxGeometry x="50" y="80" width="1050" height="650" as="geometry" />
        </mxCell>
        <mxCell id="KpssqtbUC4XY10DEQWTw-1" value="" style="shape=image;verticalLabelPosition=bottom;labelBackgroundColor=#ffffff;verticalAlign=top;aspect=fixed;imageAspect=0;image=data:image/png,iVBORw0KGgoAAAANSUhEUgAAAWoAAADICAYAAADBe6uyAAAgAElEQVR4Ae19B3gVR5ZuvZxz2Bf27Xv73uzs7szO7DhiTM5gwMYY2ziDyVEEIXIwYIyNs82Ms41xBGNwwGQQIJRQQgkhJKLIIDIin/f91X2uSk3fqxuF1H3q+0p9dbu7us5/q/8+ferUOUpJ8TQC21qNpPTWqKN0zWgziqw6mjLajKbMtlyTKLOtVbPaJVFWuzG6ZrcfQ9ntx+q6vf1Y0rXDWMrpMM6qHcdRrq7jKbfjeMrrhJqsa37nZLLqBCroPIEKulh1R5cJtKNriq6FXVOosOtEXYu6TSSrTqLiB8w6mUoemEwl3a1a2n0Koe7sgTpV17KeU8mq06is5zQqe7C27npoOnEt7zWDuO7uNYN295qpa8XDM8mqs6jy4VlU2duqe3q/QLo+8gLtfWS2VfvMpn2BOof2P1pbDzw2l7gefPxF4lrV90Wq6jtP10N959GhJ1BfosOoT1r1yJPzSden5tPRp14O1GNPv0xWfYWOP23UZxaQpwevCCcI+AUBELWQ9bQAUYOwmaixjZysbcIOEDVIu5aoQdpM1NgefBzVIuzIybqWsIORtV/GscgpCHgagW2tRmiiDp+soWE3fs26tPtkrVXfHs3aSdZzbhtZe3rwinCCgF8QsIjam2QNU4jfzSB+GccipyDgaQTStEYNoo6UrEPZrC27tVdt1rX2atitQ9msnZp1w5tBPD14RThBwC8IgKgTQ9aNZ4IxEWaQpkLWfhnHIqcg4GkE0loN10TtdbL2qxnE04NXhBME/ILA1pYgaiHrxLvu3R4ziF/GscgpCHgaARB1fMhavEHq97N2knXivUE8PXhFOEHALwhsaWERtZ/I2k9mEL+MY5FTEPA0AiDq+JK1eINErlknzhvE04NXhBME/ILAlhbDNFE3HFmLN8gevdzcaQZJDFn7ZRyLnIKApxGwiNq/ZO11M4inB68IJwj4BYHNLYYRqp8169tL1onVrP0yjkVOQcDTCGy+f6hB1InQrMUbJHKbdfy8QTw9eEU4QcAvCGiitsk6cZp10yDr26tZJyZEql/GscgpCHgagVSQNNfbZgaR2CCJmmD09OAV4QQBvyCQ2nwoNQ6yFm+QRJC1X8axyCkIeBqB1OZDyI2sxRvEGyFSPT14RThBwC8IbNJE7U7WibNZh1oU03g069trs46PN4hfxrHIKQh4GgEQdSiyTpxm3TQmGBMRIhV5GGvDpEYSzzpybxBPD14RThDwCwJM1KHIOnGaddMg69urWcfmDeKXcSxyCgKeRmDjfYO1Rs2EHcxmnTiyDmUGEW+QWCcYPT14RThBwC8IgKgbN1k3Hpt1IswgtSaQxKT18ss4FjkFAU8jwEQdLlknzmYdSrNuPGTd1Mwgnh68Ipwg4BcENjSzNGombDaB3B6bdQxk3WEc5aJ2HE87+syi0qFvUvnkj2nP/G9o/9sr6MAHK+ngx6t1PfD+Str/1nLa+9I3VDHpI9o55A0qfmQWFXZJoSLUbhOpqNskKn7ArJOp5IHJBKK+vWQdmTeIX8axyCkIeBqBDc0GUTRknTjNOtIJxrGU0zmZSka8TVVfbqCzRXup5vApulJ9jq6dr6Ebl6/SjWvXiW7cJF2wuXFTf3ej5ipdO3eJrpw6RzWHTtGZ3N106OPVVDb4DZusJwYl60SYQRLhDeLpwSvCCQJ+QcAi6ujIOnETjPWQdYdxlNdzKhU9v4CqvtpIl4+fsUg4jn8v7T9OVR+torL+C6ik90yDsBuLZh2eN4hfxrHIKQh4GoH1WqMGUTc2snaaQZIoq+1oyn90Fu154zuqztpJN65ec6Xmq2cu0vmyg3QqrZiO/pxJh77ZRAc/WxswfVR9vo4OL91Cx1dtp9OZO+li5RG6fvGya1vXL9RQ9eZC2v/yt1TS5wUq7gYtO7FkHc8JRk8PXhFOEPALAuubDaSmQNbZncZT5Tsr6NLBE3Tjyq0EfenQSar6JpV2jnuPdjwxl3Y8MpPye06lvG6TKK/LBMrrnEx5nZIpv3My5XeZQPndJtGOHlOo8OEZVPzYbCp9bj5VzFhEx1Zm0dXTF24h7Rs1V+hS5RHa++JXVNxjSh2yToQZJF5k7ZdxLHIKAp5GwCLq2Mk6UTbr7M7JVDj8LTpXdrAOeUKbvnzsNB1bm0slI96i7R3G0fb2YyinwzirdsTEojW5iAnGvE6oBlmDsDtPoALULlbd0WUC6frAJKqc9imdzi6jq9Xn6Ob1G3WufTqjlMoGvUYlD05rJBOMwc0gnh68Ipwg4BcE1t0LkubKJpBGYAZpPYpyes+gqm9T6calK3WIEhOGlW8vp4K+cyi7bRJltx9D29uPtWqHsbGTddcUi7C7TKCyoW/SoUXrCDZrs1w9fZ4OfbKGSvu80EjI2t0bxC/jWOQUBDyNAIg6nmQdF8269UjaMfh1urj/WB1t9vKJM7Rr7heU+9BUyuowlrLaYeWitXoxm4ka23iRddcUKkSFS17fudojxLRlQ6s/V7yXyp55iUoemGS77d3OqHtOsp5Dnh68Ipwg4BcE1t07QBN1PMk6Fm+QjPZjaOesRXTtQk1Agb1+6QodTy2g3EdnUWZbyyMkq12SJuoGI+uuE6mw60TaNewtTc43rl4P9O/KibNUkfwhlfSY2gj8rOuaQfwyjkVOQcDTCKzVRN1IyLrtaKpc+IP2bWYWvLDvmNaiM9uPoYw2tW57mW1B1E6ybojYIClU3GsGHfzwF22/5n5eOX6G9r30DZV0szTrRCyKiWaC0dODV4QTBPyCwNp7BlCjIOs2o+ngt5vreHScLTtIeU/Po4y2STZJg6jrI+sGWm7efTLtnvABXTlR68MNs0jVuz8GyLoxeIP4ZRyLnIKApxHQRJ1Asg7HZp3eLokq//hjgKThZXEyo5SyukygjDaj7Dq68ZF11xTa2e8VurTnCNFNa+UjyHrfS982GjOIpwevCCcI+AWBNSBprrfDDNJiOJXO/jxgkwZJH16ZRVndUii99UhKb81EjW0jJetn59OZ3PIAWcNmXZnyUWCCMRFmkHCXm/tlHIucgoCnEVhz9/N0K1lbniDxnGB01axbDKOC4W/StQu1qwJPpBVTZtcU2tYKJG0RdWiyrjWF3GqzbiAzSLeJtPPZ+XpBTMBmfeoclfVbEHDdS4QZJByy9vTgFeEEAb8goInalawTP8GY2WsqXTxQ6598pmQfZXQcS9tajdBE3aTIuqtF1phU5HKh9ACVPjonQNa3Q7P2yzgWOQUBTyOwGiTNlU0gCbRZs+teWrskOrBkc8BP+vyeI5TTdzalaZIGUUdK1s7YIGMMP+uG8AaZSEVdU2j3+PfoysmzmqsRte/wFxuo5MHpCSXrUN4gnh68Ipwg4BcEVt/Vn24HWecNeZ2u11grDjEBVzLjM0prPUITdWLIuoHMIN0n08E//RSYGEWo1fKR79y22CB+GccipyDgaQQ0UTcwWW9pM5rOlVexhYCObsijra1G0taWwymtFapF2JZWHU/NumHIuvihaXQ2b3dAvvPFe6nkoWl1yLqhzCCeHrwinCDgFwQCRN1AZJ3afDDtfmdFgMQQWCnjwSm0pcVwTdTeIOsUKnv+1TpR+A6+93ODhEh1TjD6ZRyLnIKApxGoQ9T1knXs3iAZD0+ji1UnAkRdPP1T2nL/UE3UYZN1qxGUDq+QVqFc9+LkDYLIe3bVIVKDRd1DICeODaKXm6fQvteWBeS8fPgUlfV7xU5AUBvPOtHeIJ4evCKcIOAXBFbf1Y8iI+sYvEHuH0q73lhmpcYiouqCCkrrMoF4ghFEXT9Zj6CdL35JF/Ydpd1vLKPMTuNDLIqJjazzEO701aV0cd9x2vfOD5qwIyHr4kdf0HFBwNbwD0fGmOLuk28h60SaQfwyjkVOQcDTCKzSRN0wZL2103g6lW/ZbpHLsOzlr2lzi+GaqMMm65bD6crp8wFN9fCP6ZTz2AuUEVgYE8mimGDeIGNpR985dOT7tMAiFkTKCyuetalZd5ukk+hCVpQLOw9Q6eNzGiytF7xBPD14RThBwC8IgKgbiqxzB71KdMMKwn/pSDVt6zmZNt8/1KothoWpWQ+n/V+sDxA1EtUiHOqul76ijLajbcKOhKwdE4ztx9LuuV/Shb1HA66DuNjRnzItE0g4yQcMsi5+fA5dPlxt9ffmTZ2QIFh280SYQfwyjkVOQcDTCKy60yLqxJP1INq/JDVAsPu+2kib7htMqUzU2LYYRq4rGB3eIBldkunYpoLazOJ2qzrS3ryvKOfRWZT9wCQds9oK4lRrAnFG3dveaTzl9phC+X3nWARdcTjQR/3h5k2qzi6jgl7TKaJMMUzWnSdoX2pu9OTGfJ3hPBhZx9sM4unBK8IJAn5B4Jc7n6OGIuvcoa9T5Ser6VRBBWX2mUmpzYdQavOht5B1LWEHt1nnPjNPp+JiAjS3V6rP0cnMUjr4TSpVvLmMymYuopLx71HR6Hd1xeddMxdR5Rvf08FvNtGp9JLAIhWzHXy+Un2eSoa/FV1aL5usS56aR+dK9tGRJZupcsonmqiLuk0yTCD4XDvBGE+y9ss4FjkFAU8jAKKOnazD9wbZ1GIYbe2UTJvuH0qbNFG7k3U4mjUi7tVXsDoQiQeunbtEyE6Ois/4DvvqK1VfbaScjuN0jSoHo03WmFgs7D5FJx8o6jaxXrKOlxnE04NXhBME/ILAL3cwUcdfs97YcgRt7jye0npMpLQek2lrtxTa3H4MbWw+RJM0iDoUWdenWW9rl0RIz8Xl+OYddDJrJ9UcrdZkHA4R4xisHoQ/9+nccjq+Po+b09/n9ZgcnxyM3SZSce9ZVPrUPCp9dj7tfGY+lTwxVychSKQZxC/jWOQUBDyNwEoQtU3WsWvWluve+uZDKDfpXdq/bAudLtlHNSfO0pXTF+jCgeN0bEshlb25jNJ7TaGNzQYFCDsqM0jL4bT77eUBYoW5Y1ubUbS9z0wqGvcn2v3aUtq/eB0d/imDjm3IpxNbiujk1iI6viGfjvycSQe+3ECVby6jnSkfUv4Tc3RskBOwfdvl4OL1OrN5TDkYOydTaf8FVPXJajqTU05Xjp8mLJm/dvaijmN9cm0u7Zn9JRU/iJWLbA6JnxnE04NXhBME/ILAyjuepbiR9T0DaEOr4XRodTZdPV9DZMXSZ94LbKHFnt97lPLHLKRNzS0TSHiaNSYb665gzHl8tiY+NF5z9DRl95lZJ0QqssNkdhqnkxBkdZ1I2d0mUnbXFMrqlGxPNlrBnBAiNbf3DLp0+JTuJ/pY2P8V9+zmHcaFZ7PukkIVLyymmqqTdTxIAkDYH5BlvTqthEp6z3Il61jMIH4ZxyKnIOBpBCyirkvWq6KcYNzUYQydyNlVy0M3b2qf54tVJ+nCwRNUA22yxvIpxkFXz16k3OFvBrTqUGSd3n0iZT82i7a0HFGHrDO6pVC1HVcDtuei8e9FGCK1NupecdK7dO3MRd3/czsPUN7DM8iZ3Tz3gUnaO4S9QOAJEswbpHzyx4GHCBq9UXOVEAYVxF1z+JS1xPxG7dPsfOl+Ku0715Wso51g9PTgFeEEAb8g8PMfQNJcozeDrLt/KFUuWhvQHKFR7/1yA2UPeIU2dxpLm9qOpm29p1PxnMV0ruJQgMxrjp+h9D4ztaueq826+RDK6jtbr2JEKNTcAQtoy/21mnVa2yQ6iIUpIMJr16n89aVRh0gtn/9NIOrdsTU5lNM1RRM1k3VO52Tau/AHQgbyMwUVVDr6XcqFe5+TrDuOp5KBr9ZZmHNh92Ha+8oSKnnmJSp8cCoV9Z5F5UkL6cjSLYFkvli9eGz5NirpNT1uZO2XcSxyCgKeRuDnPzxD8SDrrQ9PpavnLmnCRPjS4pe/pvX3DyNkiamTKea+wbS1ewqd3V1L1kdTC2jjfYNdNest7cfQ6R2VAWLH5GFOv5frkHXFuysCPtX7Fq+j9DajIiZrmD72fbI6cJ39n62hrPZYDGOtXgRZFzwxl+D6pwveFqrPU+WCJZTbYWxdsu6cTKczdwbaOr+riooen00FXVKooMsE2oFqe4MU9ZhC+99aobVtnAD7ddngNwyiruu6F6kZxNODV4QTBPyCgEXUwck6LDPIXf2p/IOfA8R0LK2I1jYbFDK7ecYTswN5Ei+fPEuZfWcHIeshtP35V6jGDsaPi4CstWZtm0FK5ywmXqZ96KcM2taes8SEHyI1u+M4OvTdFi0DNPPK177Tk4tZ7UDU9lLzTuOp4pUlhJyIZjm6MpN2PDKLcjsla8IuGfR6gNCvXaihkkGvUX7nCVSA2sWqJlkXdptIpzNLA00e+SY1boti/DKORU5BwNMI/KQ1ahB1cLKu3xukH50pOxAgmqzBr+qsMTppbpCEuTCFHNmYr8+BT3PhlI9p432DqPzdFVS+8IdA3b3wB9r97g/aWyRwASI6X3mYcge8olcyFk54X7vSYT+8O9I7jY84U0x252Q6uio70J9dsz6nrLajae+ffqJ9H6wM1P0f/ELV2w07PM64eZPO7qik0hFva6KuePErumEnRTi1pZAKHpxGVjCnIGTdZQKVJ38QEO/SnqM6W0w8FsV4evCKcIKAXxAAUcdK1ljZeP3KtQDRrGs+pJaog6T12tB8CFV+tkafA9vszteW0oZ7B9FNnlzDHFvtPFugbfMD3P22NB9KBUnv6olJ7Du+pZDS4bsdYfKB7C4T6Pj6XN08ku3unPoJZbYZTdftgEq6L/X0B/7bsFnv++OPAVv9oa83UV6XFJuok4Nr1j2nBERDAKiiLilxWRTjl3EscgoCnkaAiTocsg5mBgFRY4KNy9r7Blt5GEPlYGw+mCo/XaVPqSXqgRER9cVDJ3Usa3eijixTTFaXCXRsXexEjVWMdYl6oyZqRN4LGSK1h0nU16kwQNRYxcj+1bwN38/a04NXhBME/ILAj3//tNaombDrs1m7mUFA1Gcra4MZZfSbr2Nc66S5Qch6Y+uRdHhtjiZqTD4WTvuENjQbSLtg+qhTf9D/H0utXYiCky7sP0Z5g1/XgZx2JNeaPo6uz6NtHcdFnNYrq9N4OvJLltWfS1eobNbnhIBOe//4E+19fyXtM2r19jJ9XODPzZvaCwQxQXI6jCPL9GG5IZ7cXEgFPaeGDpHaOZl2jX8v0BxMHyDqwq681Dx6svbLOBY5BQFPIwCijpWsoWnvts0YYJvD63NpzT2hspsPpLTe0+nKWctn+fKps5Tx1Fza0GyQXQfriUV4gsBund1vPtUYS8UvnzpHuYNfs+JY3z+USmYvDpgoDv2YQWntxkSc1iuzw1iqMiYTK15bqonair5n+VpjwnH3y9/WWbYOeY/8lEH5D8+g7YgJ0mEcFQ96rXYy8XwNFT2/gPI6jQ9O1l1TqDqj7mRiYZcJmqjDJetg3iCeHrwinCDgFwRqiToyzdppBtnyyHS6fumy1gqvXbxMBTM+0Z4fWqu++3law5r1vQMJC2NO2gkEcMLxjBJaf99gWh8gahC2RdapbUdTdUGtex68P7YPWGBF3tOhUYfS7neWB9zz9i5eS1tbj6yzKCashLltRtPejyxTDPoEVz2ERDXDpOY9PjtAwJhAhKseiDu73Zi6Kxg7jqfqrFr3PCye2dFnFuV1Tr6FrAsemER7X18WmHyEe97OQa870npFr1n7ZRyLnIKApxH4wdaoawnbmlwMx2ZtmkHWNB9Ce77dRDftxADIwlL+0UpKh6bcZiRhQczmB1KoYPJHVF24RxM6/lw9c4HS+86mdfcOoPXNBt5C1tCyMx6bpUOjnt97hHIGLrDiWNshUje3GUUHlm3V7cGtruzVJXZM6+AhUoNlN9/10teBBS9HV2cTPEFMooZGXfnOCsJk35n8Cioe+Y69IMaRKab9WCoasKBOctvzZQepct7XVPjEXMrrNlF7guwc8TYd/mYTXTtr+Z8jqcLR5duosOfUgJ91oc7DODFqM4inB68IJwj4BYEffv8UxYusN3QaS6dL9wVIGJOENafO0YWDx7VNGVldoDFygW06b9zCWxfFuGjWW7tOoIw+MwLhUXm5+dbOyXQqr1w3iQU3BWP/aCQgiIysC0e+o8OgojFowdt7TqGMNkg6wDWJ4B2ya/Ziyn1w6i1+1ryCcXv7sYRATrtuWUJ+RUfpq8Fy+kMn6SpSirGXC1wOS/dT8WNYGFN3UUykZG2aQfwyjkVOQcDTCGii/v1T2k5dq1VHaQa5sx+tazOSjm4r1vGemZBv2SJ91qGTVDD1Y20egTZ9ywpGF7K2bNZ1VzBm9pkRWDgD97jMh6cZRD2MtrQaSWntkvQE47bO47XrXnrH8XpRjHMFY/aDU+jSoZO6u9DO8599SRO1k6wtk0gSYTUjFsSYi2LqkHWncVQ+63NNypyC7BYssPQdQZnSS2hHr+nBF8VEqVl7evCKcIKAXxBYAY2aa9zMIIMpb9IHVLUqm87vP0bQnEF8l6vP08nccip//2dKe3Rmra91kEUxbjbrOmR932Da9dayAPedyCjRJA2yLhizkHYt+Jb2LlpDVT+k09F1eXR8c6H2sz62Po8O/ZhOWG6O2CBFye/T9kdn6WBOWDDDZf+itZTRemRsZN1+DBU+9zId+Hi1jnd95cQZjQdiYF/ce5SOr82h3S8spvzuk0IvitFEbXmChDvBiEBOfhnHIqcg4GkEVvz+SUoEWa+6qz+tazGMNnYaS6ndU2hzj4mU2i2ZNrRLorX3DgziZx1+phgQdmqrEXW8QY5uKqATGaU6cQDMIHg41FdwzLXzl6jm2GmqztkV8KXGeYjGlwWTS5tRLmRdm4exXs26w1jKgR/1Q9Npx+OzqfDJF6nwiRf1BGN+j8m3TDCGXG4eoWbt6cErwgkCfkHAIuona7XqeJlBgmQ3X9tsIG1on6S9QEL5WdcJ5BTEDFIOb496CogYS9RB3Ji41DWCVFzIeJ7RFkQdG1nn95pOOV0mWNliOoYZzzpYbJAIyNov41jkFAQ8jcDy30Gj5hp/M4iZ3Txj4ALtCQLXvM0PTqE1d/cPolnXZ7MepIM4wSbtVi5Xn6Pj6SW078sN2gukeOonepl5/rA3CbUgaSGVTP2Edr26RB9zYlsxITCUW4HPdsGg12yidiPr2njWt2rWljdI/qMv0JmiPVT19SYqm/hhg5K1pwevCCcI+AUBEHVDkDX8rvcuSQ1wYeXidTr7+S1+1kFig5iue6ntkujIhrw6HhNoGFljimd/Thm9ptLWjuNoc6sRtBlugdrfepgxyVjrDZLWZhSld0mmrEdmUOmsz+mcEX5Vd/bmTZ3RPKvbxOjIum0S7f/UimmC9pCTMQemkA6xJ8wNxxvEL+NY5BQEPI3A8t894SDqujZr9gTB9qc/ROkNYptBMvq/TOz9AK+PTZ3G0WoshuHKi2JCkfW9A6lyUS3xob0L+45pgjaT5gbLwRgyu3nLEZTWcjiVzlpESFIA90IuVSvSKb01m0DC16zzHppGl6osTxIEdiqb9JF23dNE3QBk7enBK8IJAn5B4HtN1BZZJ1qzXtdmFJ20fZ4Rla5w9ufaVh0RWd8zgGDa4HJw+Vba1mtqYMk5Z4lhP+vU5kMplbXqEJr11pYI4mQHcmo5nLJ7T6eDSzbrEKa4FqIDgqgjIuv2Y/XKRY6Vfa7sIOX3mmGtYmStOsFk7ZdxLHIKAp5GAETdYGR9d38qfvXbgDfGie1ltKHtKB3AKTRZG94g9w6gohcW0bk9R6h0wbe0qfVIHR+E3fawDYesQ2rWdojU9A5jaNdLX9GFvUep/I3vKL3ViDDIutYbJLfnFDqdX6GfKdDOEdgJqxv1ghh7UUyiNWtPD14RThDwCwLf/51F1CZZ104uxt8bZFOPiXSh6gQrxJST/CdafVe/MMjamGDEcvN7BtD6ewcGCeQUHllvboHci1b+RWd28zrxrFsOD6T2Sm89MkyyHk275nwRkBPJbAuenFsnByOvYEwkWftlHIucgoCnEfj+7/qSG1knzAxyx3O0891atzrYquFrvfqu/pGRtY4LcmtskEg167DJulX4ab3gypfXd04dT5K97/1MWW2T7LRejtggCTSDeHrwinCCgF8QWKaJumHJek3zwdp0wermwZWZelLRK2Sd1XE8nTKS2+q4IZ2TA0vOOQdjneXmCSJrv4xjkVMQ8DQCIOpQZG2aQcwVjLF6g2QMWBCIIX31fA3lJr93W8k6HJt1sKh75gRjZrsxVPH6d4Fku0huu2PI6zpk6q1+1shyPjahNmtPD14RThDwCwJM1KHIOhFmkDX3Daa9S2rDop4tr6LUnpNrTSAwhbDbnhnPOpTrXpAVjOFOMMZsBmk9knYMe0NHyMPbAlZF7v98HWV3Gm/Htg4jkFOcNWu/jGORUxDwNALf/fZxrVEzYTekzXpj1+Q6E4un8itobfMhEZC14Q0SJ5t11Jp1q5G0/ZEZdOnIKbbo0LnS/TpUqhkmFZH3GlKz9vTgFeEEAb8gAKIOl6xNM0gg4l4ssUHueJYyBr5CyAjD5fDGfFrXakQEZG14g8SJrCPWrFuPpO19ZtJ5Y1UjlqTn9p3jiGdd67rXUGTtl3EscgoCnkaAiTpcso63GWTlHc9S/vRPAjGltblgRRqtbz2yyZB19iMz6SRSb928qZ83l4+foaKkd6MIkRp/bxBPD14RThDwCwJLf/uY1qiZsNkE0pA261X3DqCSt74PpMG6ef06HdlaSOtaDG/cZI0VjNCkKw4FSPrahcu0c+YiymibFF1skPbxnWD0yzgWOQUBTyMAoo6GrE0zSDy8QVbd3Z8qv1hP169cZSsIVZfso80PT2uU3iDb2oyiguFv6TjW3GF4eOx+baleHBPxcvNQmWJimGD09OAV4QQBvyCw9DcWUUdD1vE2g/yCJeavLaErZy8y92l/67ypH9PqewZEvoIxITbrYTqtV8U7y+ssaF7M0QYAACAASURBVEHI1dLpn9K2ltbCmPBWMIYKkRofzdov41jkFAQ8jYAm6kZE1qvuGUA5Ke/R1fN2Zm4ERLp4marW5RC8RMJbbp44b5CcZ+dRdUGFzkTOTxNkh0Gca2jZlq/1SJ3WKzyyTuwEo6cHrwgnCPgFgQBRx0DWphkkXt4gaU/O1tq0GWr00rHTlDflI9rQbnTkUfe0dj0oqtggW7B8vPtE2r1wBSHXIZcbV65R9Y5Kynxoqg6Pivgg4SyKQbLcuglzE0fWfhnHIqcg4GkElv7mUYoHWcfdDHLHs7S+4xiq+HwtXb9U674HkjyVv5uK5n9Nqd0n6uQDWHoea1ov56KYTcjJ2HwIZT81lyre/1knJWCCxhahVisW/kjbOo2nOiFSoybrUGaQ6L1BPD14RThBwC8ILPlbEHUjJes7n6PVzQbRtqdf1BOLJlFCm710tJoO/JxB6c/OozX3Dgik9lrLCQiiyW4Ogm45nPLHLKTjaVaKLlOrRx+Ob9lB2Y+/QFtbj6KQUfciCORkLYoJRdbR2az9Mo5FTkHA0wiAqONJ1qYZJB7eIL/c+RwhjdeaZoOo+JWv6fz+YzqIv0na+HzhwHHa/dkayhr0Km3uPpFSO46lDa1H0vr7h9L65oNpXbNBVJswdxBtaD6UNrUaQUjrtaVrMqX3mkr5Y/9IB77fSldOn3c2rxPkniuvoqLJHxFMIVGvYIw0+UCM3iCeHrwinCDgFwSYqONJ1nE3g9z5HIGwf7njWdrQeTztmLuYjqYVuRI2GBZEe7pkH2GV477vtlDFZ6tp159+pLJ3VtCud1fQ7vd/oj2fr6ODK7bRsa2FhDgjcK1zKwgYdWRdLhXN+JS2dhqnzSGhcjAm3gwSmWbtl3EscgoCnkbg27/tozVqJuzGbAaxtOt+tOqu/nqZ+ZZHplP5x6u0CcSNZGP5Dhlkdr39PWX0nkab2yfpdF5uab0Sp1nHZ4LR04NXhBME/IIAiDpRZG2aQeLiDWKbQVbdCbK2K8wi9wyk9KdfpPIPV+qcjMggU3PyLF09d4mu11yxUn/dsJZ362XeN27SjavXtTnj6tmLVHPijDadnMgspbK3l1PGY7PsHIyDwkrrFXFskFbIEhNuphjLbh1tbBC/jGORUxDwNAJM1Iki60SZQUyyhm+1/h+Tj3f1p43tx1DaE7Mpe8RbVDD1Yyqe9xXtfOM7TcJlb39PO99YSsUvfkkFUz6i7cPfoPTHZlFq+zFWai87vVdjyBRT/wRj/d4gnh68Ipwg4BcEvvmbR7RGzYTNJpCmYLN2knUgQ4yH0nrVT9ahbdZ+GccipyDgaQRA1A1B1qYZJJ7eII2NrBNns47Odc/Tg1eEEwT8ggATdUOQdUOZQUSzHkvb7UBOfhnHIqcg4GkEvv5rS6NmwmYTSFO3WUdG1omLDYIFMfFdFBOZN4inB68IJwj4BYGv/7o3NTRZm2aQRHmDBII3sb26KeZgbDPKjmkdfWwQv4xjkVMQ8DQCFlE3PFmLGWQ4IYhT9IGcQtmsa71BPD14RThBwC8IfKU1ahC1kPXaaGKDNB8S8LVGECe3RTGJ87MORdaWN4hfxrHIKQh4GgEQ9e0ka9MMIt4gHCY1knjWocna04NXhBME/IIAE/XtJGsxgyTODOKXcSxyCgKeRuDLXz+sNWombLFZDyAdJlWbQZq+N4inB68IJwj4BQEQdWMha9MMIt4g0ZhBbnXd88s4FjkFAU8jwERtkXWtdi2atalZD9CxrGvjWQ+k9c2iS+vV0CFSPT14RThBwC8IfPHrXlqjZsJmE4jYrG2iRraYJuwN4pdxLHIKAp5GAETdGMnaNIOIN0g0ZhDLG8TTg1eEEwT8ggATdWMka/EGid0bxC/jWOQUBDyNwOJfP6Q1aiZsNoFYNmvLx1rMIE4zSNPxBvH04BXhBAG/IACibuxkbZpBxBskMjOIX8axyCkIeBqBxX9lEfVi21btrlmLN8iau5+nNZhY5NpEJhg9PXhFOEHALwh8DqIOi6zFDNIUydov41jkFAQ8jQCIuimRtWkGEW+Q+s0gnh68Ipwg4BcEmKibElmLN0j43iB+GccipyDgaQQW/crSqJmwa80g4g0SefKBxucN4unBK8IJAn5BAETdVMnaNIOIN4i7GcQv41jkFAQ8jQATdXCytlYuijdIf6qThxFeIFzZE6QRLjf39OAV4QQBvyDw2a8e1Bo1EzabQMRm/RyturMfrbrLqpGbQRpHICe/jGORUxAQBAQBQUAQEAQEAUFAEBAEBAFBQBAQBAQBQUAQEAQEAUFAEBAEBAFBQBAQBAQBQUAQEAQEAUFAEBAEBAFBQBAQBAQBQUAQEAQEAUFAEBAEBAFBQBAQBAQBQUAQEAQEAUFAEBAEBAFBQBAQBAQBQUAQEAQEAUFAEBAEBAFBQBAQBAQBQUAQEAQEgcaPwINKqQl2/fPG390m38N/opRqr5Qap5RapJRapZR6TSn1nFLqd0Gk+8dKqWT7N/qrIMfcrq872v16ooE78Cul1DSl1GdKqQ1KqRVKqTeVUo8qpYCxFEHAMwj8U6XUCaUU2XWBZyRrnIL8X6VUloE3425uQTYgZrP8K+Ocx80djeDzB3bfMhuoL/9NKfWzUuqmgYmJHz4fth98DdQluYwgkFgE+jgG+0ml1D9L7CV92/r/VkqdNfAuVUotVkq9q5T6Xil1xtgHDdH8HYSorWHzB6XUIQMnYLZeKfWGUuqPSql8Yx8I+y3fjjYR3FMI/GIPbBADayhPe0rCxiMMTBcgD+D8vEu3/r1N2KwdPmAc8w+UUq2UUq2VUv/J+L4xfGwojfpfKqXKDSL+Win1H1wA6KKUumgcN8jlGPlKEGgyCMAefcMe0H2VUlvtz9uajARNq6NbbHxXh+j2v1ZKnbKPAwE2hdJQRD3fxgUPsvpMdL2MsX1OKfVnTQFI6aMg4IbAVHvgg6z/o1JqhHEj/N7tBKXUQKXUGqXUaKXU3yilcJNCy7mglAIBDbHP+0dKqUlKKZDTZaXUAfs1/78HaRcTmt8qpXYopS4ppaptW+57SinnOTPtPqAfoSpubLNggmms/UCCiQd9hl0VNmHIb5Z/YcuD9qHBQivD2wf6hXPX2pNW5jn1fS6y8QVe0JCDFbyu46G50DgAZhDgi/5As+YS79+D24P2f7dSaoltaqhRSqH/45VSmNcwS31EPdieMD1i/7aw0b+ulMIbRLgF4+mYjR9MH3ig1Vcw/vjtJMk4eJSNI/rgVjBGgHOwh0G48kDb5/F5p8uF/rOx3+1++z9KqY9scw7uof1KqR+UUj1c2pKvPIoAiKLCHsgYTCj/VSl1zf4O9j63gsGNwZ/nmITkGwJb3OwgXfM7/lzmmJHHpNnnQY7lc04rpTAJx+Wneo7n8zbxCUopTEDtDHEeSKSdcfy/NY5dZnzmtnmLh124hbHDufDyiISogtmouc14/R7c3kGl1Pkgcn/oEDgYUYOo4NHCWDm3IJ57HG0F+xeeJXw+HhbhFIxnPsd8SwzWX27zU/s8PCzNEqk8/8O4flezIfsz5iy4fx0c+zFhbM5n8HG8xf0Z6mHvaE7+baoItDEGielWhSc2BgNeF920Fr6RecC8rJRCWymGxsP7QKiwqaKaN+xjBmhwpeLjMbEGbQGaBEwxJkGak0JwYcPAdqvQeNHedaUU23j/oT3hxNdBW2gD5D/SsGceVUr9O7tvJlHjPGiTjyilMJk1zDgHOP0bQ55QH6E14aHD/bhiu5VNVEo1c/H0MNuqj6i5zVh/D/P3hS19hv22gQcdExyuxW9O6CN/7/T6+JMtK9rB579VSv1PpdSzBg54u3Bq6Kbc/BkaMcsIG3S4pco+D+OCS7D+8v5gRB2pPNESNcY/3mAg716l1MO26eYuxz3RjzssW+8iwFosZs3xms8Ftj2+IYbyl8bWvJHnGd/j42zjXLzemk98EA2ICW3j5ufCdlvc5Obx2A9tm+21Tu2Gzze38KflvoOAufQ0vn+BvzS28Gnm8yAfiknUcF90TlrhrYHPgbYXbvmNUmqfcS63gS1If6ntY+1sLxyijsfvYf6+Lzo7oZT60e47JutgjkBxIz48CPGwhFzwyHAWPLxZdpga6iuvGMf/v/oONvZzf3EtHudu/TVOUW5EHY080RI1zE3oLzTq/2V2zL5HMPGP/XgLZJkch8m/XkAAJMSz4hi0ZoEd97g9EArMHfZn80aGlmUWaLh884HInKXS3m/aXn9ta9F3OA+2iQD+smhzu8t+8yvYrfnab5s7bFsj9kGbdXtLwOGwOeMYltkk6lcd7eHfvzOu19tlf6iv0IcBSqnlNjlzv3kLDRQPFLwJcAmHqOPxe/DvC/u9m2mmhSE3HjoobsRneri4tYPz+IGF37i+gld9xge23XDL+8Z5/LB166/ZnhtRRyNPtETNJie3Bxz62d+QCfMIUjyKACZDeNDDVgrzg1mh3fL+5g4M+EbGhJ+z4NWWz3Pa3HBstr3fJGpuA8QIzRYTPfArXufwK87hA122WNHH18VNz5oeH5pm7w+llYMY0QbkgmZvEvVwbsjYgnz4msAu2oIHY0ul1HSXhTCYSOJSH1HH6/fg3zfYgxEPGZb7SbtzbsRnEiS0WrfKb0u7WMgQW7yF8XUjISf4WOM8TERycesv78PWjaijkScaosbEOcu5OwhuGMd8jGm2NGWQzx5AwCRi/sGDbWEiMQvfyG43l0nUToJHG25EDVLF7DprEc5+sPtgMKLGA+GqPXChDbtpzPge7cLmHazA5srXhsZmErUbEcMuzce77Q92nfq+h42eF3Tgreef2yfUR9Tx+j349w2l5ULbhuyz7L65ER8etIxPfVuYxOor8DvndjB/EW5hG/VG4wS3/hq7XYk6GnmiIWrzjYXlDbWdbHZcPnsHgd8aAx4TFSBAt8raDiY1zAUWfCMXu0ASDVHD/Y4HIuzlmHQEAWACBRNP39j7c12uB/MDr+bDkmGnPY9PYa0K5o1ghV0V0RdouSZRY/Wms0RK1HB9BGnA7oi2QxVoqowJewvUR9Tx+j3494Ud1K3AJsp944VRbsQHWzuOw++C3zJUfcjtQo7v4CEBkxDahEeRWzFNRdgP0wz39R3jBO4vFAe3wuY28w0sGnlMouaJbfN6eDPg/vEbqHl/wvQRCjfs+2uzQfnsHQRg6uDBAftwsGL6VMM+x4Vv5HgQA8iOJ5yg8YTShtl2zP3AKyLcuyALNE/MiAcrPFuP450TlnzOF3ZbeEChxJuoTXMTE5x9qVs25kTb7SJq2I/dCrxeePzgwYzCxGd6fWAiEsfBJIMHn1uBHz7mJth27HaM+R1PPKNdaJ5mwTXQZ1wXPvEgbfPNEWY1LmzvLuQvHFu4kOIaJlFHI4/pHug2j4E3A8aSiRr+8vwWGcz1Ew9LyP+X9XgKOcSSf5sKAhjMPFEIr4xQBTcPuwjBVsYEF0+ixsINHqhuHibQiODoj2PgHscFhA6/YXyPQQ1PlVDFNGu4BTSCtsYeKZhxR4k3UeOm4ofSHtvNz75UnQ08XbA0GrLBHMTxPhpao8b1u9fpmfUP229h/mAN1o2oYQ5CG6huXh1/YfgJu70tuVxau4GyVg1TD7RPLqa7Kd5asDaAr+/0+4Z3DPYBX+dDAhoqm9JMoo5GHrgdch/mckeNLSIn8n4mauwusb/HG5ib8oIFWnwePJqkeAwBvCrxD2y6rwUT8yvj+E72QfEkatys3J90hz8yNC28NvN+1vBg015pfA9tHxoUPB7cKroNssPDBm1hVSFrqdiHUJlswwZZ86q/eBM1roVJUpYHmia0NNxowAEPJZCBqQUCfy63g6ixmtRcUQfC5YfNHO5YEI0aJA4Chrx448GELxe41+ENirFwi3vCxzq3mM/g86BIYPUh3qZgy4d/NvePj4FvvNPUZJqW8FCEaQ/9vdf2W+ZzTaKOVh6OTYK+YkEVFB5cD8TN18HWJGrTRRa2cV6Zi3H8lKFxw3TJD0snTvJ/E0aAbW9YfRiOixMGDw8mRHdDiSdRoz12i8N1QJRYQcaTafiOyRpaDhajmDY87luoLbRlFPg6s0sijoe2gldcfs1E++bS3EQQNW5SeC+wVhiq39DsEYSIy+0gavQPfQVO/CaG79A3fsNC/9w0anwP4jMX+KANJi6WHbbfSMgG14WHjBND5//cPrawT/8XBtJ+cPO4wn6MAZ7rwP/sNmgSdbTyINSC2Rdch8ccXwf7TaLGtb40zsP9Ci3bnHDHWHabsDfElI9NEQG84rG2gRWD4RTcFHhqYyBhsEBzhU8x/nez7+G1kQclVto5C2uL5sQObiB+1edzscWrLbRN2NH5e2hC5oQlfx9qa04wQnvGJBnjgPMw+DGB2c3RWXOy0M2+iFdSJgesWIyk4M0G/eBVlNx/PKgwwYUkDiYRom2QNl/P9DKJ9+/BD2IQA2yk7OGBPuJh9onLIgueEMZbkbNgQhirXdm0xLJiLgDth7Mq0dkm/r/PHjdspuB2scXYwWpPeCwxZlhMZJIhxgW0eiZNnAftGysgeTHTZpcLRyMP3DvNBxbuJbSNttgrxQxfwJfFykNTaWEZodxE4qLI7clWEIgZAbwOQgPDJEmwBRIxX8RuAK/JMK3ges4A/fG6RrjtwHaNJdF4fY+WtMK9VjjHMVHzZDHwQd+gvcXyu6AdmHcwqYcHZrAJxnD6aB6D3xKTkjDN4fd0LvpBLBG8pYGQ+e3KPB8PZPixR5o1J1J58ODFNWBaw9tRJAVvv5hghizO4GGRtCPHCgKCgEcQcBK1R8TSJO4VWUQOQUAQ8DkCXiVqn/+sIr4gIAh4CQEhai/9miKLICAIeBIBLHRCbBT4+EoRBAQBQUAQEAQEAUFAEBAEBAFBQBAQBAQBQUAQEAQEAUFAEBAEBAFBQBAQBAQBQUAQEAQEgcaIABJoYkk2kqH+YscWQIJarJLjBK+Nsd9YEYZATFhmHelqsoaSB8t7U+2YFMGuiZWYkAHVLaJfsPPk++gRiMeYx4pKLOFHBLsVdigA5OrEcngkSw63RNMXxA3BuDKXwod7PTmuCSKAGAIcwpTjB5hbxG02o6Y1JhGDBSdqLH3EjbzDjk+CeBTBCiLRMeb4LUDcUhKHQDzGPKL8IR4I/27OLeKKgLwRhzpUibYvWCqPOCGIvxPpMvRQ/ZF9jRABzg2IQQaCQIAmBNZHnGHkyePBhzCcDzbC/jd2okZkN2CIzDShCmJpMNbYjg91sOyLCYF4jHnk+TR/L/x+SDaBN1JEEzSDVx1USv0+SI9j7QuHyn0rSPvytQcQgNmAo3ghStufucgE0wdr28FSFbmc1mBfIbgNAtsgSE1j00KRegmJDhAAKFSKJAQP4puec/GZyRkaDEwfXCgeY36Q8XshSa5b6jBEp+R0XfhtEc7VDFMLqOPRF4wx3J8YY5xhxwc/o79EROQyJohQr+VT7OPwKodQjFLCQ2C+jRuyi4QqHBYUcZ7NmN+cnCHUubIvMgRiHfMwYyBEKu4bxJIGUQYriOSHUK98j73iODDWvnBznNDDzFLP+2TrAQQQN5kHETJFBCuwhSHhLQjHmZsO52AiBIMk39YgYdNGzGEz8D63jbjNq+22EFsaCQjwmojY1JgUxDVQ3eJXow30hY9BuE1kueD2OBsLXwv7YP/D8mdkJ4H5Bq+oINBg4SGRyxDxqI/YxyNFGeJdRBrSE3Ly2wriGQcr0LKQKgq/A5KXImMN2z05OYPzXOTIY5khB7LzICYxcETsZRA/sqagYG4BcZjx+o3g8siygkljt4LMIcihidjYiHuMBzP6hljJznMwUca/Q31bM0UWroskxIg5jgcT4kfDxorx4pZCDdih/TF2WNL37TRsiGeNdGyQNZI3qVjH/CjjnnFLKebEFfHVMfbw+yJRArRoLrH2hdvhTE14e3N7K+bjZNtEETCTB1TYqYEiFQUeCkw0TPrmFolDzaD3iKXL+0Eq/BlbEAJn1gimHbCWigD/IMNgNmpkCYGt0Gzf/IyHiRmrGFiAoM1jzM84HvF/wy1IA4XzMdkTikieMa7JGTpgb+Rz3d5gzGwz8NAx+8mf8UCC2SrYb4PrmgVZsc2MIdyOuTXtoHhImvtCfUb+Qi7jHIkanOctdsSm5qBQMLtxUH3nOSBC87fka7ltYx3ziHuC6yPRQbgxtDl5Ls4z35Ji7QvLhwc3/3bAV4oHEUCGDnPgg5CQSumxMGaroUmz/RpaEZ7seKLjJl5mtAutlotJ1LguErtiYgaviCAPNgOAsKERmwXkC80Q52GyEyUYUTPZ4VjcKNDifmdr0ywvZuS5cGZyaJH4DHsfSBKEy5ox7IzhBvPnRKW4sUOVTbY8eGhxQRID7uNM/tLYmkSN4+BVgkzmyP0IzZTPxRZ9H2Ynz8XbAicHLjXaw0eezERKKgRiwuQXfkekCmOChBbLGhtwh5nGWZGZZJbRB7iPMWZwU8SDC/3CeIFtFxjfb2vx3G/kPeTCRI19OBc5EmHTB+Fh4pvPccOJ23BuYxnzPBYynI2G+J8zxKCvcKkzSyx9Mdv50cYC+UOleBABaLuYqeYB79wixdY0l4SggII1VmhtZoor7EO7eIVGezAj4KmPYhI1EsvyjW/v1jch98GZ0sq032LyEMWNqPEA4Tbeto8zN/wQwY2P/oDAOR0XzA/Ogmtxe+G87uJ8ft2F2SFYgXkCDwa0jXkAs3CCXZAkzCFmMYkak1l/buyEXdRMcwVN2SycRBUmB27XtJU6j8e50NJYfvwGoQoInm24eLCZJiZObgtt1PmWgb7wQwsmGk7gahI1xqFZ8CDHmyD6Vt8D0Twv2jEPMxXjAM0/3ALzE5+He80s0fbFbAOfMW5xDWjW/Ls6j5H/PYDA39u2WGhaPKjMLeyJzlllft1yIzdA0t9oi3O6mUQNzdWtID8frr3csRMLCfA9bk4ubkTNWZsxE+72Sgz76mSlFHIfwnwC2zjaBWkGs0Vz4lEkBK6vQINk7JBZPFhh0kQ/TbLF8bDJcht4UzGLSdR4A3EWJGHFuSB5ZzFNLZzgFe1Bq30iSGJZzBdwX7o7GzT+h3bMbzwgY3MBEh4gkBPtYDGIW0Ef+DpsrzaJGr+Vs3xnn+OWs9N5rPP/SMc8JhK5f3CLC7fgocPnmeYj8/xI+2Kei8/mw5Qfcs5j5H+PIQDSwA2N13cz4So0JSZrc/DBlQyvXs7KhIFBChJAMYk6mD2NiROaIex4KNBm+MFgalZuRM2v3m5EZTdXZ4MJKr6RnDLw/yAeHGOaKOo0YvwDTwBub6jxvfnRNOOgn1jdZlYkQOU2MJlmFpOokbTVWb61z3VmzcZx0Ji5XSZq83xM/MGMAv9e+H7DJMJaP85zmyDG+cg1yG8B+N34jYfbhqbN1w2mlcPmy282bP5gosZEnFvBikC0i4d7LCWcMY/fjE034TywuT/IwciywwxVXwmnL842+hjXCOaz7TxH/vcQAiBK1mQx2GCzRIH3Bw++cLbQYFFMonbL5o1jYA7hGwJ2VRR4HeA60MpMM4sbUbP/KhbshFPYdzkcOUBC9RXYw7mtYIuEkOWcj6lvC6JEAlguJlHzA5D3YctE7SR47AtG1HDPxISdW194HgL73Igangy4Fp8Lu76z4DzeD3yCFZjJcBxrrEzUwYgYXio4Ptj+YNcJ9X2wMY9z2KSFN8xwi2mjdj7A6msjVF/Mc823kbbmDvnctBHAzQUzByZH8ApeX4G9ETcE3OhQoHnxjQfTB17PQ1Ve8GESdTASQ/s8KbbFulzAIwNuaGZxI+oP7b5B0w+nMLFjIi2UDNjntrjBeQ08SBgbTMq6Fb4miB+uj24V7mfcDibRuJhEDU3KWSIlarg88iQZHgrQojGhDLc/TCgiWzj3o6fzYrZrJu+f47IfX5laJUjFrcBeCzzQFpuMmKjRJ7cSCVHHOuZx/Y/t/kFhcHvgQAZn4d8DcrFtPh59Ma9jzjNgMlqKhxAAMWHwhENoG+1jmagxkVOfzRETiNC8/9LwHw2XqEGI6BvfEKxhOzVIN6KGOQDnQhNkjwPzZ4OtE3LABg4CASngePhZB3O5ApnhBmBTjNme8zOuyeYCmDCcBRgwIWGxQrCCm5k1TEy8shdMvImaJ5PRZzeNmW3+wIhtx9xn2JvxPSp8o92ICsfiLYmPG8AnO7Z4a+Bj4K+MEk+iRnuxjHmcbxKiU2nAfpjz4MHEbniw6bNMcD81S6x9MduCQsDXcZuXMY+Vz00MAdM1CBpbsNliEBQTpTkRxJN+sLG6TfSw/RADiDWxcIkahAmPBpwLbRNbuOxhUsosbkRtmhWw3NdZ+hqDGtoibMM8yN28Ov7C8EeG50I45YTd5ksuBycZ10NfQxX2G0f/YDtGiTdRm9459iXqbOC5wviYnjhYJMXfg5ycv02dRoyHDsYN7L3Owq6ZaBO/C0q8iTrWMY8H0XpDbtjyzfuGPVcgA+YIePESlADTfAXZYu2LhZD1F7FhcE3Y+N2wNY+Vz00MAawMNCcLMbBgE4aHBibEYOvCxBz73oKs+QaCqKamBTsvzzZD88NNzBo3fGZ58IRL1GifX2uZDNw8HNyIGjcTNGacB020o/27gPxhbmEtFf7HKOgbu47BNew5+3ts4ELHbxNoDxHTwins4ws/YmeBhwLawk1s3uTO4/A/fiOWf5t9QLyJ2iQMk4gxgev8DdgnHmOD3wrwRgaXSHhFQJtzVn6IAzuWBdo3JiBR8HshpC5PJGIRD5d4E3WsYx79gmnLvG/gGgjNGfcMPF/gn89y8hbha50lHn3hNtn7BQ9MKR5EAC5UmBjhARVsi4GJ1z5n+dI4F0QObYm9M9AWiI9X3OHcSIjanJRDW27Lyt2IGtfBw8ZclQf3OpA2y4fl1ubSZiyiYDstjoGXAdvl+RzYlfmB48TB+T8efLlI+AAAAwNJREFUeDjPaU5Bv7i9YG6NzrZM7xnM6MebqLH0nh+q6BuwwtJ5+Frjf2DBb1TsB8w2dpYl1JYXJ4GQzdWfUADwsDRxh3bPPvfAId5EjTZjHfNoAyTr5srKJi8nHrjH3OZk4tEX9Ic1d560x3dSPIYAEgNAW4V7FWvPPNAQ8wG2XNMn1ik+tCwcx+fwFjY89p/mc7AAgve72UP5ON6yJ0KwWX1ofXxzwIRhFpgs4I3AmhpfF1qumwsTtCFMYrKmyMfDNQ8mHzd7t3k98zO0K+5XZ2MHEw/axkRdOMX0R8f50ES5b26eM9BWsR+k6CxYvcjn8sQWjkEoAJiweB+2eMhgKT9+Mw78g4cXijlBZp7j9hkTcFxA1jD9mA9NnLNTKYXFSfg9zfKq3adgftIw2eF8TLxGUmId87gW3hRgKsMbhVNu3EfADLJitS/vd1s5GGtfzAU1pvIRCR5ybBNDABNY8JWGryubMsIVAdoy3I8QE8NckRbu+Yk6DrZTDGZMHJrkFOx6wAAmHrxBwK4YbIIx2Pn8PS8jB6k1hQK58UCG3NAY6zPLxCoTm9ciHWexXtd5fixjntuCuQcujjCzwcPJtNfjDQFxyfEWFyyGDbcTTV84NnYkvt18PdkKAr5HAESEmxMaOh5iUvyNAMaDcwVqrIjgIYBJdpip2AU21jblfEHAdwhgFSVee+f5TnIRuCEQgDsgxle48x0N0Se5hiDQ5BCAxgMbJey9sIFLEQTihQDi0mD+BPb+cPz743VdaUcQ8CQCmKiD1oNwq1IEgXghMNseV26LquJ1DWlHEPAVAvAQMCeYfCW8CJsQBLBegX3UE3IBaVQQEAQEAUFAEBAEBAFBQBAQBAQBQUAQEAQEAUFAEBAEBAFBQBAQBAQBQUAQEAQEAUFAEBAEBAFBQBAQBAQBQUAQEAQEAUFAEBAEBAFBQBAQBAQBQUAQEAQEAUFAEBAEBAFBQBAQBAQBQUAQEAQEAUFAEBAEBAFBQBAQBAQBQUAQEAQEAUFAEBAEYkHg/wOd+zRec70OPwAAAABJRU5ErkJggg==;" vertex="1" parent="1">
          <mxGeometry x="320" y="230" width="212" height="117.13" as="geometry" />
        </mxCell>
        <mxCell id="KpssqtbUC4XY10DEQWTw-2" value="" style="shape=image;verticalLabelPosition=bottom;labelBackgroundColor=#ffffff;verticalAlign=top;aspect=fixed;imageAspect=0;image=data:image/png,iVBORw0KGgoAAAANSUhEUgAAAWgAAACsCAYAAABW6zbDAAAgAElEQVR4Ae19B3QUx9Zmbc57Nuc9u+ffvPv8fj8/G5ssBMpCCaGIQOSMwWAwwdjY2MY5Z5tnjAPG2BgbGzAZCYRyRjmgHAAhJCEkwrfndnf1tIaRNCPNSNB965w6PdLMdNf9uuabO7e+e0sIbqZFYOrMLFCfFpWtd5/oHOg9Jhc+1GNz4Rubp/a4PPjG5as9Ph9+8QXwmyV7IfwTZL8A/9lqD5hTBL0nFiMgsRiBiSUInGvo80oRqPQyBM1Xe/CCcuh9YQWmy76oEtOpL6ZehRDqS6hXq31pNUKWXkToMtlrELaceq2tr6hD2Io6hK+kXm/rqxoQvqoBEdQfb0TEatmbELG6CTNWNyFyTbOtP9GCyCdaMHMt9Va1r7uEmbI/eQlRT15W+/oriNJ69IY2yB7z1FUofeNVxGxsV/umdsRuuobYzbJ3IHaL2uO2dCLuadm7EL9V689cxyzZn+2GaScuG8YIWAEBSdBM0vcRSW92nqStMIfZRkbAtAhMjcxUPGhJ1IN60jHsSZMXfb940qaduGwYI2AFBBSCNjNJK6EOk4Y7nPCkrTCH2UZGwLQIeBM5y67Foznc4Z5wR+RIxKQHIWnTTlw2jBGwAgLeMzLAJO25hcPRJmkrzGG2kREwLQIKQTNJ25QdpPIwkbrDtBOXDWMErICATtBM0vc/STsId1hhDrONjIBpEfCOSIdbSJrVHYqy415Td5h24rJhjIAVEFAI2ookbRF1hxXmMNvICJgWAe/wdLiVpDnjcFBPeiQXDk07cdkwRsAKCEwJTwOT9MjrpEeKpK0wh9lGRsC0CBBBM0kTQY88SY9E7Q7TTlw2jBGwAgJTwtKgdPakTUnSVpjDbCMjYFoEpoSl6gTtEU+a1R2DxqQ96UmbduKyYYyAFRBQCVojafKmPeFJ308kbTJ1hxXmMNvICJgWAa9QImfZOdwxmvWkPbFwaNqJy4YxAlZAwCv0PO4XkvafXQS9zymGv9JL4D+nBP6JWp9bCv/EUvjPLUPgPLUHzS+H3hdUIPgeLvrvbpK2whxmGxkB0yIwWSFoByQ9yuqOgNmFCF9UhNjlxZizpgzLt1TghfdqsWtfM347cQXns6+htPI6GppvoL3jFm703MGt23cAqMeenjvo6LyF5tZelFd3IzO/C78ntePrny7h9c+bsGZ7LRZurMHsddWIXlWF8GVVptyZxbQTlw1jBKyAABF0vyTtqZi0XTKLT2w+psXkIzixECu2lOP1j2vx3c8tSEq7ivKq62jvuAlPtK7u27hYdwOpOZ346Wgb3v+qBRteqUfM6moELyLCvv+3z7LCHGYbGQHTIjA5NEUh6H5J2lOetLZwOC0mD4s3lOLH31pQXduNK1dvKt4w+cJDabcVL3oo7wR6b95RvPG6ph4cSWrH+lfqEXyfk7RpJy4bxghYAYHJIUTQg5C0mz1pv9hcRC+9gBffqUZxWZdDNr19G+i6fguX226isbkHJRVdOJ7chi++b8ZrH9fhqR3VWLKxAvGPlyFsEW08Www/Q0yaNqMNX1KKhDUVWLqlChtfqcXrnzXiyx9acSy5HSUV3Whs6VG+EOg6dD1HraTqBuZtrNE00vdfMosV5jDbyAiYFgGFoEeIpKdF5SBmaSE+/aoeZZV3E/OdO8DFum6cSL6Cnd814vm3LmLZpjLMWHwBPnGF8I1Xu9+sC/BP0Pps53YLD5hbigBt4ZCOAfPKELWiAiuercH29xvxxb5LOH6uHVW1N/qQdV7xdcxYoYU6aMfwUcg4HM7CoWknLhvGCFgBgcnTz2EkSHrqzGys2lyM8sou3LzZN4BBHuyBw5fw+NYyxC4vQsi8QvjF58M3Ph9+8QXwmyV7IfwTZL8A/9lqD5jjHEkHzitVlB1B88tAPXhBud6nL6rAjOWVmL22Cqu31+GHw1dwrfMWXvywSYlHhyypwv0owbPCHGYbGQHTIjCJCNoVkh5CTNovNhs73q3CzVs2YqZ4L8WcP95dh5BEWiS8t3YLD15YifBllQhZUnlfqztMO3HZMEbACggQQbtM0i7EpH2js/HaB1W43n1LD/HW1nfjw111iFpSCAp7+MTkqt1O3eEblw+lj6AnrWukSSu9qFLti+9fkrbCHGYbGQHTIjAp+KxC0C6TtJOedMLyArS09ujknJnbjrmrL8AnOhs+0Tm2Lkl6FDxpSmjRE1koqYWSWWRfWAnypoMXUa/S5HeqBI9keNOXUL+IkKWy1yB0GfVatY/yHoemnbhsGCNgBQQUgh4qSQ/iSU+ZkYFv9zfo5Fx18TrilhWA4tHTotQ+2iQ9+4lK/HqiDblFXY57sYP/0//k/5XH15Fb7Lhn5Hfh+Q+bEbq8TtmMNnxlHcJX1tv6qgaEr2pABPXHGxGxWvYmpcjSjNVNiFzTbOtPtCDyiRY4W2DJCnOYbWQETIuATtAeIOkpERmob+zWCXrLjnJ4R2Zh6swsnaCJqB2S9AiEO0IXlWHfb5dA6hFPNsp0DPWAJ+2MusO0E5cNYwSsgMCkoGR4iqS9IjJw28B+/jFZmKoR9L1A0nPWVqL1imeyFI2EX1jerYQ7wkaBpK0wh9lGRsC0CCgE7Q6SdhCT9gpPN/IUVm4qgveMTMWDJoIeVZJOLMGeX1r18VXVdGP9SzVY94LWX6zFOtlfqsM6+76jHut21ONJ6i9Tb1D6+lca8Mw7TbjcZlsUfe3zVijkTATtAZIeKNxh2onLhjECVkBgYlAS3EbSdjFpr7C+BJ2V147IBXmYGjn6JD1/fSW6DMqSZ9+uU6rg2SrgGRYOFxgWDhdSNby+C4fTlbodtoXD7R80ofO6mppY19iDuRvrELa8ZlRI2gpzmG1kBEyLwMTAJLiVpA2etFdYmu6h0gOqNnfq7GWEzsl2naTdqO7wm12EkylX9bFl5ncieH4J1ESW/pNZnJHgzVhxEb+eatfj2r+caMeMlaqyYzRI2rQTlw1jBKyAgELQ7iZpzZP2Cu1L0JIRSc3x+JZiBM/Kdi3c4SaSXr2tCm3tauy5t/cO1r1QDardoXQl23DoJE11O+qbVVkhedHPvd+E0GUXtU5e9Mh60laYw2wjI2BaBHSC9gBJT7Yj6J4eW0Uiqt98IvkStr1WgdDEHEyZkaUoPKT8zlPqjpD5xdh/+JJebyM5vR2RS0ttBE1EPQySfmNns/weQkVND2JWq/rokSRpo7rDtBOXDWMErIDAxIAz8BRJ2xP0xu0laDYkrRCTUR2O6trril56zsrCu2R47pbgzX2iXKmQJ6/9wnt1CEwsRmCi5kEPw5MOWlSJipobOkF/tveyWlN6FAssWWEOs42MgGkRUAjaQyQ9OTRVJyt6QIuGMYtycfR0K9qu9sJR7WYKf3z1QwPWbC1B/PJCRC4swPQ5eaASpQpZy4zDIeqk9/1qU24UlV1H6IISBCQWK304JE0Lh0+9WqfbSwuQ0Y+PbhU8UneYduKyYYyAFRCYGHAaniLpuwk6Dd7h6ZgSno7lT13ANz82OCw7KlnuytVeFBR34HjSZXx3oEmp30E1pDe+WI6Vm0sxf20xZq0owszFhYhYUIDQeQWYPrdA2ZnF164Knt+sQixcX4buG2qYhXJTtrxarexxqFTDGy5JL6rAuaxOOXTs/70NpO4Y7Sp4VpjDbCMjYFoExvsTQXuGpGmXFmMjwiaC9o5Qu29UBiLn52L100U4eLQF1zoHThq5deuOUnSJXtd29SYuXelFy6VeNLX0KEX9G5pugPqplDb4xPUtVUq1pM+ktunDSc26hsA5F+COUqWk7ljxTI0eOum+cQcrt9XeE1XwTDtx2TBGwAoIEEF7iqQnhdxN0FPCVS9akrT3jAxQp7TwqTMzsWZrsRKPvlDSqRBvW3uvQspEzs62iurrmBbbt570mm0VuHpN/QKgBcpVz1S6rZ709IXl+Oy7Vr2calpuJ2JWky7aQRU8JR49cjuzWGEOs42MgGkRGO+nEjSR9AQ3e9IOCVqT4IXOzkZwfJYS7pAkrRC1QtaZmDIjE1EL85Ui/9vfrMRHX9Zi74FGHDl5CeczrqKgqAOV1dcVj5k8aSLfjs6byqIjbTRLG9HKUqXTEwvx85FLkNsVnj7fhrCFRequLG4o+h+9shKZBWp4o/fmHXz8bQtCiJypXKkjkh7BnVlMO3HZMEbACggoBO0hku6PoEndkZRyGfkXrmHLS6UKSU+hsIfmTXtTpqHsWko4pYX7xmQjKCEXYXPzMGNhAaIWFyB2WSHiVxRh1soiJKwqwpzVxYhfXgTfuDyVoOPykbimRNc9d3bdwrY3a9y6M8vKZy+ip1f18C9duYnFm2uUkqVBCyth62qp0uDFVcpGtLJUKZUp9aQEzwpzmG1kBEyLgE7QBpJ2V0x64vSUPlEJr9BUUN+6o7TP/2vrr+O9z6sxZ2U+whKz4Rudif5Ieig66QOHbcoNWnQMSiwELRq6Y/ssSg3/5Zgttk21oWhzguvdt/Xe3X0bFJe+fuO23q9eu4VPv7uk1JP2JEmbduKyYYyAFRAY73sKniJpImhjckrIrEzQQuEHO6vR3GIr4i/ZurPrJrLz2/H2J1Xwjxk+SfvE5mHR+lL09KjeLZHnhu2VsCk8hk/StAFtfdPdtkibBjp2dN3yuE7aCnOYbWQETIvAON+T8BRJE0HnFdpqXnz21UVQ2MMnMg3xS3Lw6e4atLX13sVh+39rVr1oCnnIUIerBZZILx2bh3Pptusnp12F3yxaPJSb0NJxeCRNu4V/8k3zXRvh3mWUg3/sO9SmErQHY9KmnbhsGCNgBQTG+ZyEp0h60vQUbH+9VE+rbr92E09tK4Z3eCqmhKnhDiLr514rw/mMK6pq42ovXv+g0haPHgZJr91WBromNdI/L9tUpi8cunO3cCJp2iU8ZGEZQhaVIXRxua0vod3CK/DpnhYdh1u3gWNnryF6FSWyaLuFe0jdYYU5zDYyAqZFQCHoQUh6OOqO4Nh0pGZc0au7NbXcwNsfV8A/Kk2JR0uipsp3sYtzsOG5EsQuzlW10nLRcAgkHTw7DwePtirXpQDH8aQrSiLLSG9EG7akArt+uASjTPB06jUkrKseEZ20aScuG8YIWAEBnaA9RNJeIeeQuDwbtBAo242e2yi40I7HNxbq3vQUkt/Z1ZNWtNJDJOm5q4vQ3qF6zx2dt7Dl5UpMi8lTe2y+opOmZBafuAK9UzKLLeRxYdg6afKkSR9NC4SynTrfjuhVVSMmwbPCHGYbGQHTIjBu2knoJO3rmXBHQFQqTidfkhylH0mXfDb1CtY+fQERiVnwiaQ08DSlGzMOdfmdk570tKgc/PK7TblBi4NUlIkkdkrvvIVOY6f/X7+FK1dv4sPd9W4h6ekLy/DKJw26/O72beB8didiiJwXVqgEPQI6adNOXDaMEbACAuOmnUAfkh7Ek3ZVgucTcR5f76vVF9Fu3ryjJJToLA0oYYjyyk7s/7UJL79TgQVr8uEblQ7SS1OBJard4R2hZhwqZD3IwiHtGk5JK0NpRODkSQ9Hghe8oAzvfdmEbk09QuNIz+vEvPXVcKbofwgtGrpp4dAKc5htZARMi8BYhaDtSNqNnvTiNTmKLphIirLsvvq+FglLs7Fnfx26uu4mUQp/XL7Si5q66zh2ulWR3C1bX4jA2EzQHoeUEq50JfQhE1rU/Q3lHodE0FSIybhhrbNknZ3foak8hkbStDPLW39pBEnoZMsp7ETsqkoELyhXO3nQspMX7UFP2rQTlw1jBKyAwNipJ+CQpN3gSU8MSsbRE7YC9skplzE1LAWTQ1JACo/IeZnY/V2tQsbXOm7qKgdJbPbHltYe5Ba04/CJFuz+vh7v7byI59+oQPTi/Lt2ZiGS9ovNRuCsHK3nInBWLgITchGUkKf22fkInpOPwhJbFbrXP641yPBcI+mgeSXY+kaNTs4UWskr7kL86gpF5aETNBG1JOjBwh3DVHdYYQ6zjYyAaREYO/U4hkrSg6k7JgQmg4odyTZ7WRYmBp/D5OnnFJImop44/RwCotOxbusFfPZVDc6cu6wsKBK5OdNIPrfttXLX9zjU6kkvWFeiVMWja1E9D0oLH6oEb8eH9aAvGtmo3vTiTVWgbEOS4VEfEkkPI9xh2onLhjECVkBgrDcRtGdIekJAkuQq5eg74zwmTT+LSUTQBpKeHJoCKk3qFXoeATHpmDkvC/NX5+G19ypw8Egziko79DrOfU4IKLHmjS+WOazd4Uxa+Bsf1+iZhqlZ7YhYWAjf+L6lSm3KDvKo71Z3BCYWYfu7dXq9Dxpj5cVuJKypGNb2WSGLh19P2gpzmG1kBEyLgELQg5H0EGPS4wPO9OHTHW+VYlKwStD9kbQkalm3g46UHk7qjqgFOVi16QJeeqtCyULc+1MDfvy1CfNXFwwp4zBodh5+O66qS0hl8cXeRvjF26rgOetJr3uhSq8FTZ5/eXU3EtdW2PY5HMYeh8MladNOXDaMEbACAmO9j8Epkh5CTNqeoBubbmD5ulzdi3aGpCmRRe2qTpoSWtSerig85MKhM+oO+41oo5deQFWNqs+m0MSGFyr6VMEbzJP2S7iAp1+tRutlWxinurYbjz9bZSPnYexx6I5SpVaYw2wjI2BaBB6bQgTtJEm76EmP9+/rQZN3Wd/YjSc2F2BikPOedB+SdoNOWm5Eu3prqZ7hSOMKnZsP31gqU2orVToQSW/cUaXs6CJ/JjS39mLB+gq37HGoKDvcoO4w7cRlwxgBKyDw6JRjcImkXfCk7QlaEhkd9x2oR+zCTHiHkaLDcUzaGO7oQ9JuyDikZJafDrXoQ6KSpFOjc1WCdoKkl20uR12juoO3+sVzA4ufqrBtoTXcPQ7dpO6wwhxmGxkB0yLw2JSjcDdJS3UHlTE1tpKyDuOfoJDH9wfq8eTWQvhHpWKiFp8mdYdcOPQUSQfE5+CyoZIebUI7LZoq4A1M0pQavubZCtTUq+RMBtGeiOtfqELgnCIbQdNjT5O0E+oO005cNowRsAICj3odhadI2p6gI+ek4eCRxj6Fg8j7pPhvRVUnvv6hFotW58IrVNVJe4qkKaFl00vl+pdFXUM3fKk8qewDkPTKp8tRr3nOdIL2jltY8XSFXrfDf7b7NqJ1RzKLFeYw28gImBYBIughk/QgMWl7gqaQx8TAJKx7ugCFxdcUiRwRtH1ruXQDh4414aU3SzFvVa4iuwtNyERgbLpSS1qWK5XFlfrbiLa/hUPvyCwcP3NZv+zufY2gkIcSmx6ApOetLUFZla3oEy0OPv5MxbDSwgMVhYfndNKmnbhsGCNgBQQe9fpdIeghk/QAMemxvqd0EqQHkqBJH+0dehYbninADz/XK94zydwcNfo/lSil6neUxHLgtybs3luHD/9yEa+9X4EX3ihXttDauL1EKVW6fluxctz4QimeeaUcz71ejikzMvropGcuzEdjs7oLCu0luOypYpWcox2TtE9MHhY+WYrisi59iFRYaetr1QhIMFbAc6yTDhjFcIcV5jDbyAiYFoFHJxNBD5Ok+/Gk7yJov9OKB01etOxTQ88hfFYaVm3Iw96f6hSVh86CAzyg+sq0lRXt90dbZVFxJAqVyK7s8N11S6liR7U7jDuzPP1yhVLVjk5fVNqJGQvzYS/B08MdMbmYv7YEFdU2z5muu+FF8pzdtzOLpzxp005cNowRsAICj04+AreQtANPeqzPyT4USyGPiQFqmEMS9MSgJEwKSlY61e6gRJa4hZl49d0yHDnRDKpyRx70lbZehYhpj8PbVKfUhRYcn6Xu0BKZCZ+oLHy7v0Et5H8H+OFgM/zjchSCdkTS8csvIKfgmn412qFl045KUC3pgSR4jjIOR8STtqvdYYU5zDYyAqZFYIxC0J4haXuCHicJOuAM4hdmIHpeOijcQWQtSZoImjTS1CcEnYVX6DlEJmZg6do8bN5ejFffLcfHu6rx9b467P+1EYePNeNkUiuSzl/BubQrSElvU47J56/gZPIlHDnZgtDZ2foWWuFzc5GrES7tvr39zUql0JJ9WjjFpGctv4DM3HadnKnw/473LiKA9jUkgr5XSdqg7jDtxGXDGAErIDBm0hF4iqTtCZpCHiTBmxSYhOKSa2ho6sbuPRcRGndeJWrNk1bSwUlyN0BauHfYeUybkapsnRUYk4HguExMj1c7eczB8ZkIistEQGwmps5I1wk6cVUBbtxQA97NrT2IX1agV8IzknTsssI+Ve7IaX/+rSqVnJ3QSQ+nnrQ7wx1WmMNsIyNgWgTGTDoMt5O0FpMeO80uxOF/GkTSb31Ypnul9KC39w6On27G2i35iJyTDv/IFEymokqDkDRppPvVSTvIOKRY9Edf1OjXTs1sw5SITJ2gZT3pmYsKkJzapr+OdmMhz9mok56zuhjznigBKTsCEgruzXDHkmqYduKyYYyAFRAYM5EI2gMk7XMSj007ibartjoVCYvTFILe/koRcvLb+uihJRs2Nd/Azt3V8AlPsRH0AJ70gCRtl3FIcrzySpsS4/k3K+A9Qyv6PzMLJL+LmJ+HUylX5HCUzQbe/bwGAfE2nXTEggJ9EwJ6YcSCwns23GGFOcw2MgKmRUAhaA+RNIU4jhxr1MnuzNlWTA46gwn+pxEUdQ7rtuQhNcOmR5Yv/GZfDaaEnFXj0tKLHipJa540aabnrc6Xl1DUHxT+0Ak6MhMUn07PvqrX56AXv/v5RZWcNQkeedE/HbaliJdXdcFHCXncmzFp005cNowRsAICYyYegs2Ldr8nvWBFBq5fV7d/olDGrm+q4BuWjPH+p9XudxqRc1Kx86sqUCo4FS3a9nIRjOoOPdQxVJIOS1P2N/z6h3qdoH8/2apsnSWTWcISc3DkZKtOziSl+3BXHWhnFqnuCErIxQe76vQYNkn9Xnin2qUCSyOt7rDCHGYbGQHTIjBmAhG0RtIe8KSnBJ3GV99V9dk09vfjTVi8OtNG0kTWfqcxOShJUXcER59XddIGCd5wSTogJgMVVbbwxlPPl8A7Ql08DIrPwq9HWyDVe0TOf9lTj4A4lZy9I7OxcG2RslM47eBCjRJojiVdRug8rQLePbpwaNqJy4YxAlZA4BEiaA+T9LSQMzh5ukn3XunB5Ss9OHCwHmHx5xVyJo9a0UgPoJMeDkmvfKpQ336LvPToRbkKQdNmtCTHM2YyfrWvQSFnWjSkmPSe/Y0gxYcxLf1CSSeilhSq9TsGqN3hbNF/RSPtgYxDK8xhtpERMC0Cj0z4DZ4k6fE+JzFrQSpq62zeq5Gpb968g9+ONGL52myExqZgaujZAZNZhkLSVLuDUsMpJEHt2KlWZZdwkuP98EsTbmmuM+06vmd/A6bIhcPILLzxUbVxuPpjSpx54tky+MZqi4f3KEmbduKyYYyAFRB4ZDwRtOdI2i/0DM6lXtK9z6bmbqRlXNZDHpLxiDzLKjpw8FAD3ny/FKvW5yAsPlUJdVANjz4JLS4uHJJO+vRZdTGS4uDvfFIF35np+G5/vT4OIue9BxoREEdqDk3ZEZmJmCUFil6bvOfcwmuore+WQ0ZJeSdilmpeNBVZugdJ2gpzmG1kBEyLgELQHiLpx6aewLaXCvTwQXt7L9ZtyoVfRBKWrM5Eckqr7tXqrKfpoq+296KxqRsXiq/h598a8Pp7pVi1IRcRCWmYFJyMCUHJmBCoZR1S9mHwOUyiLjej1TaiJRle1IIstF5SiyOR57t8fQF+Ptzc59oHf29GYBypOjL0tPCpkZnwj8nCK+9XYf3zpYiYl4sVm4r7bHG16/sGTCOFh6yCFzNwPWm/WbJ+BxVWkv3ujWjdlRZu2onLhjECVkDgkXG/YkCSVjTSQ1N30EYAuXk2TfEnO8tBpD2O6nb4nAQlsiQsTMXe/bWorulE+7XePqRpJG3jY6rF0dJ6Q1F9pGddwcmkFhw+1oRfDjXhwK8NCEvIgLHo/9aXSvS3V9V0Yff3tSCPmdrNW3dw+ESLumCoLRrak7QqxctSElpIK/3cm5X6+ajov9xC614kaSvMYbaRETAtAgpBD0bSQ1R3EEHf6LHVEfUPO4Nx01Ry1klaI2r/8GSsWp+N9z4pV2LShUXtCmHrTOjCg4QlWSpBh6RgUkgKklNsWuvmlhu67I/CKr8dbVbSwr3D0wckafKmadFQzTbMAhVNki2aFgv7KVXqyh6HnpDgmXbismGMgBUQeJjIWXYKdbgx3PGo1zHJYcoxLOYsxk07cRdJj/M9ifG+pxQ1ByWxeIckITg6BTMTU7HsiSwlJn3g13pk515Bc+sNPZ7d5+SGP2YRQSuhjnMIjktXUskNT+sPibipfocs/O8USUdmwTc6C1JuRydLWFGohjnuQZK2whxmGxkB0yLw8NiD8BRJ0yYAxrbvp1pM9D95N0n3U09aT2aRSS3+Z5Si/5OCkhAal4rE5ZlKXPqpbYV4dkcRtr9egpfeLEFAVJoSi6a49Gvv9a37QeOhEElK+hVMm5EGdTPaNFAauDM7s1C50o++qDWapRJ0VLbNizbGpEd54dC0E5cNYwSsgIBC0B4iaXuCpozCt94vwSRHJO2gnjQlr0iSnhhwt056QmASqKu1pZNB9aSpTKkixdM86MxsW9EjSc6k6AhNyIBX6HmNoFNVL9qudodMZJExaZ+oTLzwVmWf8AadkzxoY8bhvRTusMIcZhsZAdMioBO0B0h6zOS+HjSRGe2AcvBQHaZNP42xtGBojEkP4kk7ImmFnPvJOExYalNvSJc3J/8qwmdnulQFj4jaNyoT3/xYr2waIM8lj7OWF2JaVFa/Rf/l4qESjx7hjEPTTlw2jBGwAgJ/HvsLhkTSTqg7xkz+XXKYcqTQgmwtrd14bkcBpkclYaLfKV3ZoSweGmLSihc9iCfdH0m/+EaJHismHTMtPAZEU12OFIWg+y1VqnnSUyPSEZ6YjadfKsXFWosPcKcAABfOSURBVNuWV3QuY1YhEfTUSBtBy9odd3nSoyDBs8IcZhsZAdMiQAQ9ZJIeRN1hT9D7fqrpU6aTSK6opB27vq7E409mY+r004oMj+R3xoVDe5Kmov/OpIW/92mlvj1WelYbZs4l+d25PhI8I0l7haYqxO07Mw0rNxbi869rkH+hvY/0j2R5x89cwhVjGVUiaF3hodbv6JekRzgmbdqJy4YxAlZA4KHHVIL2BEk/MqmvBz3J7zie3JSN2rpO6UjrnjVpoC/WdGL/L7VY81QOvIJOg8qVkkctFR7GmLQzJE1JLT8dbFC00VHzMlVyloksIeRFqzK8SSHnMTUiFY9vLFSyCyuru5S6HUaPnwZKmucdb1eAiitRPQ/ZEpYXKLWk70WStsIcZhsZAdMi8NBjP8NTJP3IpCOSw5QjxaRJGz3R5zje+aAElVUd6Oqy6YmNL+7tva0U9f9qTzW2PJePWQvTEDn7PEJjzyFw5jn4RZzFtNBkeIckwys4CZODaV9DrQcnwWt6slJT2jv0HHzCzyNgZiqCY9MQnpCB6PmZSFiajU3PF2PXnhpkZLfpoRDjGOgxbY9V13Adu7+vA9XumBKervS7CJrqd2hetKqVvjc8adNOXDaMEbACAipBe4akH5loT9C/KwT92JRjyjEg7DQ2P5uHHw7UorT8mh6OsCdJ+Xfb1R5UVHYoemgq/n/4aCN+OliP736swVd7L+LLPRfxxTfVyvGrvTXY82Ot4kEfOtqEM2cvISu3TdklnCrpGWPI8vzGI8WcfzvWjJfeLsfM+TnwkgqPiLsJetbyfFv9jnuMpK0wh9lGRsC0CDz06AF4iqQfmXjYyHmgkMdjU1Qvmkh6rDf145jkdwLBkUlIXJKKjz8vR66yHZYtA7HPSTz0BxF2aXkndu+txYoNBYicmwX/qHSHOmmvsPQ+IQ6FoGdkQMk2NGQcOuVJe3jh0LQTlw1jBKyAgELQ7iRpg7rjYQcETdpoRyRNRD126nE85n1CWSicEngSy9dk4v1PynD0RCPKKq6hvuG6UoODPOmOjl4lZbun57ZSV4PStilmTHWd6Uh/UylTev569y10dN4EFWBqvdyDhqYboDgzedWf7b6IJ7cWIjA6TUkLp9Rw48KhmsjSVyftFZpmR9B56u4ship4LoU7PEjSVpjDbCMjYFoEdIJ2J0lr6o6HJ9h70EdABE192ep0rFiTgXFT1XCHQtAaSZM+euy0E4pOmoorUSdlh39EMmLnpyqV8J7cnIdnXijEjjeKlVRwquHx4ecV+GhnpXJ8/9MKvPVhOV55u0TZQmvDs4VY8WQu5izNQkgcVcQ7iwlB1NUqeAOpO+xJmsIddQ22RULyoGnHcLl91pA8aQ+pO0w7cdkwRsAKCDw05gA8RdJ3EfTEI3h08u/wDjwBqgtN5UfPp7biiQ1ZGD/tuBKXlp60JOnBancMVYKnF/6frpUotVN3kBfdnydNHnQfgl5GHrS6fda9RtJWmMNsIyNgWgT+NOYneIqkHx5/CHcMq3HjvH8HLRzu3HV3fQyS3n32RTnmLDqPgHCqekchD9WTvouk3ZxxSDWklTrSTpI06aWpaJNscUvU7bNkSvi9RNKmnbhsGCNgBQSIoD1F0rSVVm2tTfO89qlM0MLhqicy8OvhOrS1qUX0JdHRkeLHe3+8CIpBU0y6X5IeQu2O/jIOZe0OZ0iayHnuyjx9E4Ke3tvwj85wulSpUwuHbgx3WGEOs42MgGkR+NMj+xWC9gRJE0Hv2l2u8295RTtCZ57Co5OPYLLvMUTPTsanfylDc4stnksO984vy5WQx6DhjlHwpKfHZyAnv123Ken8FUWC51SpUlckeG5aODTtxGXDGAErIKAQtAdJOjzqJJqabXUsUtNaETUrCY95qfFoSgenhcJVazNw8HAdSsvasWFLji7BG5SkR9CTjl6QjeNnWnQNdWfXTSxZV+BaPekRJmkrzGG2kREwLQI6QXuIpMdOPoznX8rVdzEh1/NiTQfefLcIgeEnMWaSjahJJ03p4KSLNuqkh0vSzqSF64uGtCGtISZNj4Nj0/Hqu2XKFlvSde7pvYNPd9eA6nYoBf9lIosLO7OMRLjDtBOXDWMErIDAnx7+EZ4m6XFeh/Hs8zn6DtpEcpTKXVXVgbffL4KX/zGQJy0leAPppIcak3aVpCcGn4V3aApeflslZuPWXTR+0k/7KeRMGum+Omm3hzuGEZO2whxmGxkB0yKgEPQIkPQj4w9h/pKzKC652oeoiew6O3vx/Y8XsWBZCoIjTmNKwAmM9b4743BQT3o4MengZPiEpyBsVhoWrMoBpYq3GSrW0Thv3b6D2voubN5eDCqwRAX/adGwj07ayZ1ZjHscetKTNu3EZcMYASsg8OCff8RIknRg2HG8834RioqvEuf1bXegFFA6crQeH35aio1bczB7QQp8Q05hjJLgoia1POZNGYeqwuMuCZ6DmPQ4bb9DXTPtdxpjfU/DL+IcZi/JxMZthfjg8wpQzY7S8o4+5UXlAKtru7Dr2xrELcp2up70veBJW2EOs42MgGkRePDPP2AkSXrMhEN4bNJhBIaewOZnslFQ2HdLKkmIJLejRbhLl28oKd4Xitpx6Pd6fLKzDM/vKMDKtZmIn5eC6VHJ8A4+hfG+J5WMQyXzUKsn7T39DEKizyF+QRpWrMvGth0X8NHOCvx6uAH5hVeVKnWtl3rQ2XnTISnTWIiYKf48c26mEvKYTKngWqnSgZJZnN3j0GVP2kV1h2knLhvGCFgBAZWgR56kx0w8hDETD4OyDeMTk/Ht3irFe758+YZS4tOQ3yI526kjhSGG2qhuB4U1LtZ24eDhRiU1nPY5dEUn3Sfc4amFQxdI2gpzmG1kBEyLwIMPETlrnWLRspOqQ3YPJrMQSVPyChH1hGlHMWfhOTz3Uh6+/LoCJ081obi0HVev3p3QMlQSNr6vo7MX5ZUdSE65hD0/1OCVt0uxZE0O/GakYHxAkrIJbX/qDqc9aU+RtJMLh6aduGwYI2AFBB58aB/uBZImoh6jVMI7gjGTj2DsFKrZcRyB4acQHpOE2QvOYfOzOfjoszLs/7kWyedaUFTcjrr6Llxt71EK7kvvmcIjlOFHu7TUN15HSdk1pKRdwi+/1WPnl5XYtqMQC1ZmYmZiKkLjUuA/4xy8gpPVbbTkLuH9bERrlODdDyRthTnMNjICpkVAJWg7kh7BhUOKSctwhz1JU8YhFVd61MsmwZNSvEe9jmmyPHXhkHZqeVRbPFQXEWUVvBPK1lly+6w+C4b+pzHen/Y3dG6PQ92bNuiknSbpUVJ3mHbismGMgBUQePBPRM6yG8Id9zBJe0InPSIkPQrhDivMYbaRETAtAn/9p+9hGZIejk6aFgvlgiFlG9plHI66J93PwqFpJy4bxghYAYE/Pvg97kmSNuzMQjFpR+EO9qRz4BOdA5+YXL37xuZB6XF58I3LhxXmMNvICJgWASLoQUlaKjtGIOPQ1Zi0J0ja1bTwe3nh0LQTlw1jBKyAwB8f3KsQNJP0aSiZhtrCoVlI2gpzmG1kBEyLwB//mgjaSZI228KhmWPSmk7atBOXDWMErICAQtBWJmkHtTuMnvT9ru6wwhxmGxkB0yLwwB+/g+VJ2sSetGknLhvGCFgBASLo+4qkWd0BVwosWWEOs42MgGkRkAT9wF8PwZNmdQfcsRGtJwssmXbismGMgBUQeOCBPYoHrRA1kzTGDRKTvt/UHVaYw2wjI2BaBBSCHi5Js7rD/Z60m2p3mHbismGMgBUQ0AmaSRrjqNA/edCy+57EePvdWEaywJIbandYYQ6zjYyAaRF44A/fwiFJs7oD40yg7jDtxGXDGAErIPAHImgzkDSrOxyqO6wwh9lGRsC0CBBBD0jSvHB4Xy8cmnbismGMgBUQ+MMfvlEI2u0kbbaFw/tU3WGFOcw2MgKMACPACDACjAAjwAgwAowAI8AIMAKMACPACDACjAAjwAgwAowAI8AIMAKMACPACDACjAAjwAgwAowAI8AIMAKMACPACDACjAAjwAgwAowAI8AIMAKMACPACDACjAAjwAgwAowAI8AIMAKMACPACDACjAAjwAgwAowAI8AIMAKMACPACDACjAAjMDII/EshxJNajx6ZS1ryKv/FgLPEWx5XCyEWCiH8hBD/0JLouMdod2G8YIB7tVIIESSE+GfuGTKfhREYGIE1QghovVsIQYTNzf0IBBhwlng7OjYLIdYLIf6x+4dg+jO6C+OLTtyr20KIbaZHlA0cdQQK7Cbj2lEfkTkHYCSPeiFEsdZLhRB1Qgj6cjQSdoYQ4u+YEwqPWeUujCVBdxnuU4kQokoI0WZ3n3Z6zBo+seURGGOYbEe1x2VCiL9heWTcD4CRPKY6OP3fEkJMEEKkGe7J8w5ex//qHwF3YSwJ+vt+LvWgRtzyC/U/9fM6/jcjMCwEPtLIgLw5Ig054XyGdVZ+syMEBiMP+Z6/L4RI1+7FLSHEY/IJPg6KgLswHoygaSCTDZ+XJYOOjF/ACLiIAC1GtWuT7E0hBHlwTdrfP/Zzrn8ghDgshDgihPgXQogVQojfhRCdQgj6CUiE/9+09z4khPhSCFErhKCfiplCiLh+zvvvhRCvCyGOCyHo5/8dbWynHbznr7Tr0xgG6//P7np/EEJ8q3k/vdpP1gNCiDC719GftFBE56cFPFp8+lgIkS+E6NGOZKsr8XpnyYOu/UfDh/8zbWz/1WBvqIPx0r/+ueH+eAkhjPeLxkoLkb8JIa4IIS5p925mP+dy5Z7QKSReq4QQ/1sI8YkQgsI3NDdozizWrkPz7CkhxBkhxA0hRI0QYrcQgq7nqLlyz4aLsby+MwRN45UOzRPyjXxkBNyFQIJhgo3VTvq29r+bQoj/6OBC/9TwHvqgywlqPFJMm9QIkvyNz9Fjuq6xBQohOvo5l3wvjUu2Pw/yWvkeOpKXIxt9iMgjNT5vfEwkYYz5vqG9lkIOFCM2vlY+JnL5d/ICgxxdIQ86FX2h0XXOaef9mxqZ0f/oi8xRI0+Onqf792+FEMb79UM/NtDrN9udzNV7Qm+XeGUJIVr7uRaR+Hf9PEe/4oz40zldvWfDxVjC4AxBLzXY8X/lG/nICLgLgZPaBCPPV7Y/GSbdM/KfhqPxA08f7FwhxCwhhL8QgjxR+p/stJhCk5jidYs0b4meu2A4Hz2Ui5QNQojlmvdIJLzVQIzktRLhUPtHWjiGQjLGPkUI8azh+qeEEH9Xe8/DGmnR9WmhhzxQ+gIap5GdHDN5drJJwqHniPBeFUJQzJ7CP78YruMIJ3kO49FV8pDhp6uGk1BMmsZDCgJHX6BE5vQ8jY+a/f2iXwAztHtC94Z+2dDrrwkh/on2Hjq4ek/oPUa86Jwva1+QpEghZQr9T3Ya3yStHzL8P8owhqHcM3dgTEOQBE1e/kRDpzkWrv06oF95ZM8+w5j5ISPgFgQoDCEn2Ca7M+ZoE4+8Rvo5amzGDzx96IyLIxQ7JSKVH0Lywoxtu/YchRbkeb0HeD29lzwoeT5HC2vG81NYgIiGXk8/rSkEI5v0Ri87CEvQWOSXFRGW/KltJJwt8kTa8e8JIcq1ayXbPdffn66Sh/HL5j9oJ/3vBjxIQ21sxueIhKkZ7xd5tRQCMTbyaCW+07QnhnpPjHi9aLyIEOI5w3VS7Rah6QtXzhv6UpZtKPfMHRjT9SVBS2z6O5JTwgvq8o7x0W0ISLIkT8xIsnQBirnKCUnegrEZP/Dk4dm3JO29RO72zRhS+dfak3Q+8mJjhRD0E96+PWoYCyUH9NfIm6RYN42bSPh/GF5IXxxkJz1n/1NevozGIG2W8Wgj4TjSJJPnRO/JkycZ5Dgc8vg/hnOTV0fXpV8vxiZJkOyXvxyM9+s144u1xxTflXZHaP8b6j0x4mUf9jEuQNOXgn2r0MbxvvbEUO+ZuzB2lqDpl9UOIQSNlxsj4BYEiAglmRGR0iKRsS8zfGhpkczYjB/4DcYntMcyvkhEbd/Io5ZkIAna+Bpa0KNwCYn/92g/s6WXT+8LNr7Y8Jh+mkuvnzwx+ulsbMYFt/68cIp9yvi0DHNIwmkxnszw+C3NnkLD/wZ66Cp57DLgZcwunGv4/wPaBcmLq9T+/55hEMb7RffVvlE2nLwnjhYLXbknEq/r9hcRQtAXjLyOo3sgpYWSoId6z9yFsSRoCsXQrw7Z/40Qgha/6UucfglIm351YDP/ixEYEgLGSSwnWH9HIkj66Syb8QNPXq99kwRtT+z0uv4ImmRk8gNqPw5j8oYjgv7bmrJBvm+2/YA0YpfPk8fYX2u0IzhJOP0RMKlO6Lz9PW9/HSPujkjK/vUUOqHzk7LG2Mibl4uqFOelRnFSaSPFbmUz3i9HBExfbvJ9xueHck8kXsY1DTkOI0HLBWn5HB3l/ZcETfdajsuVe+YujCVB96eDpjHTlzqpjOQ4jb9yjLbxY0bAJQRo0tGkIm+TstUcdVpMkhOPFsdkM37gI+U/DUdXCZrkWDIzi74MaHGK5Fkk36OFQlodl+OYbriOfEgSNPl8f0kdlPwhX0OhDEeNPFAZB31Be4EkHBqTo+ZJgiaPTapgHMW4/6LZRCoSGjthRjbaj3Ww++WIoId6TwbCy1WCHuo9c4WgB8LYGYKmOUHzVM4tR58HR/OG/8cI9IvAvzIQ0Tf9vkoI8kylR0l6WVoUozbYB95VgiYPkCY4kbMjD5l+SsoPgIwNa0NR4snyOdI297dYQ+oP+br58s12R+MCGxXDoTYQ4dDzniRoKXekcZMCxr5RGEfaRHF6qV9fZ/fCwe6XI4Ie6j0ZCC9XCXqo98wVgh4IY2cJ2ljHhhZXuTECw0LgccMHmybzQI0WPyQJUGyY2mAfeFcJmvS8dA36MnDUKNFFjkEqE+h18Yb/k7RssEUa+WVD4QhHi5FS0kbXkprWgQiHxuApgqYvIlp8krjIL0cjPvRlJFUkJ7TXUgzdfnFusPvliKCHek8GwstVgiZbh3LPnCXowTB2hqApfk/zie4TYe9oIdl4z/gxIzAoAqQ4oAlFHpeUuvX3pv+pvZZef1Z70WAfeFcJmgrN0PmpGwmYFsUkAcrnE7UxUIacDEdQ3RDKsKPFGyIn+y4/NPMM1yFvm4iJGhEd6XTlAiEl38g2EOHQa+T4hhKDJu10iNaJLCjBhKRpUu5HNpPyZKDyryT9k9jQ0dFC1WD3yxFBD+WeEB4D4TUUgh7KPTMS9HAwlgSdYrhPdL9IP09rL3RuqTwh7GlOcWMEhoUALR7JDzSldjvTpGyO3kcr64N94F0laFrckhI4uka1tjpOWmn6mxQU0puUC2Iyhi5tGehIsVpqRMTGhAhKMSaZmox/0znIc6TUaNkGIhx6zXAIeqAx03M0PvqVMFD7z3bYGRf55PsGu1+OCHoo94SuNxBeQyHoodwzI0EPB2NJ0IOdg56nuL90BCTufGQEXEZAfoBoUtECnDPNKOmi9xs/0FI3azwPeRJ0fiJD+0bZhnLCG2tYkJdon0pNUi1aAKRkE4qV0/so+YSa/BKQ5xro+Ln2HjrQB55CPBRTN76nSAjxjoNC+aQbptf1p3OmxVN6nhZUnWmU/m68rvExqVUoZEGqgI1CCEcyREfXkOEIqq3hKBQy2P0iYpFSRuMvGFfvCY1tILz+l8F2ipnbt/Pa8+/aPeHqPXMXxpRtarw/xse0eEvZsKRUovoilGjDjREwNQK0KEnJJbTQQqGVwcIvwwWDMvMoVCKzBod7vtF6f7ZGJEbts7vGMtL3ZLBxm+WeDWYnP88IMAImQMCYZUn1TrgxAowAI8AIjCICVEOFFkupqBQVl6Kf3pT6zY0RYAQYAUZglBGgZB1jPJSKQw2UaTfKw+XLMwKMACNgHQQoy4+ULSQLpAxDWYHOOgiwpYwAI8AI3OMIyGp19/gweXiMACPACDACjAAjwAgwAowAI8AIMAKMACPACDACjAAjwAgwAowAI8AIMAKMACPACDACjAAjwAgwAowAI8AIMAKMACPACDACjAAjwAgwAowAI8AIMAKMACPACDACjAAjwAgwAowAI8AIMAKMACPACDACjAAjwAgwAowAI8AIMAKMACPACDACjAAjwAgMB4H/D8KwfDLja5IwAAAAAElFTkSuQmCC;" vertex="1" parent="1">
          <mxGeometry x="590" y="230" width="209.3" height="100" as="geometry" />
        </mxCell>
      </root>
    </mxGraphModel>
  </diagram>
</mxfile>
